<mxfile host="app.diagrams.net" modified="2021-12-27T02:47:56.146Z" agent="5.0 (Macintosh; Intel Mac OS X 10_15_7) AppleWebKit/537.36 (KHTML, like Gecko) Chrome/96.0.4664.110 Safari/537.36" etag="o_BtA5aKX1dQhIOsyzFk" version="16.0.0" type="github">
  <diagram id="JrLgVo83opMoaeoCqVSy" name="第 1 页">
    <mxGraphModel dx="1603" dy="2018" grid="1" gridSize="10" guides="1" tooltips="1" connect="1" arrows="1" fold="1" page="1" pageScale="1" pageWidth="827" pageHeight="1169" background="#ffffff" math="0" shadow="0">
      <root>
        <mxCell id="0" />
        <mxCell id="1" parent="0" />
        <mxCell id="L2mpfw4ouIo0iJSDVPGY-59" value="" style="shape=waypoint;sketch=0;fillStyle=solid;size=6;pointerEvents=1;points=[];fillColor=none;resizable=0;rotatable=0;perimeter=centerPerimeter;snapToPoint=1;" parent="1" vertex="1">
          <mxGeometry x="380" width="40" height="40" as="geometry" />
        </mxCell>
        <mxCell id="L2mpfw4ouIo0iJSDVPGY-74" value="" style="endArrow=none;html=1;rounded=0;endFill=1;entryDx=0;entryDy=0;entryPerimeter=0;" parent="1" target="L2mpfw4ouIo0iJSDVPGY-73" edge="1">
          <mxGeometry width="50" height="50" relative="1" as="geometry">
            <mxPoint x="400" y="520" as="sourcePoint" />
            <mxPoint x="400.0000000000009" y="-60" as="targetPoint" />
          </mxGeometry>
        </mxCell>
        <mxCell id="L2mpfw4ouIo0iJSDVPGY-43" value="" style="verticalLabelPosition=bottom;verticalAlign=top;html=1;shape=mxgraph.basic.orthogonal_triangle;rotation=-180;direction=south;strokeColor=#6c8ebf;opacity=20;fillColor=#dae8fc;" parent="1" vertex="1">
          <mxGeometry x="400" y="-160" width="520" height="520" as="geometry" />
        </mxCell>
        <mxCell id="L2mpfw4ouIo0iJSDVPGY-16" value="7" style="text;html=1;strokeColor=none;fillColor=none;align=center;verticalAlign=middle;whiteSpace=wrap;rounded=0;" parent="1" vertex="1">
          <mxGeometry x="370" y="200" width="40" height="40" as="geometry" />
        </mxCell>
        <mxCell id="L2mpfw4ouIo0iJSDVPGY-11" value="2" style="text;html=1;strokeColor=none;fillColor=none;align=center;verticalAlign=middle;whiteSpace=wrap;rounded=0;" parent="1" vertex="1">
          <mxGeometry x="370" y="300" width="40" height="40" as="geometry" />
        </mxCell>
        <mxCell id="L2mpfw4ouIo0iJSDVPGY-12" value="3" style="text;html=1;strokeColor=none;fillColor=none;align=center;verticalAlign=middle;whiteSpace=wrap;rounded=0;" parent="1" vertex="1">
          <mxGeometry x="370" y="280" width="40" height="40" as="geometry" />
        </mxCell>
        <mxCell id="L2mpfw4ouIo0iJSDVPGY-13" value="4" style="text;html=1;strokeColor=none;fillColor=none;align=center;verticalAlign=middle;whiteSpace=wrap;rounded=0;" parent="1" vertex="1">
          <mxGeometry x="370" y="260" width="40" height="40" as="geometry" />
        </mxCell>
        <mxCell id="L2mpfw4ouIo0iJSDVPGY-14" value="5" style="text;html=1;strokeColor=none;fillColor=none;align=center;verticalAlign=middle;whiteSpace=wrap;rounded=0;" parent="1" vertex="1">
          <mxGeometry x="370" y="240" width="40" height="40" as="geometry" />
        </mxCell>
        <mxCell id="L2mpfw4ouIo0iJSDVPGY-15" value="6" style="text;html=1;strokeColor=none;fillColor=none;align=center;verticalAlign=middle;whiteSpace=wrap;rounded=0;" parent="1" vertex="1">
          <mxGeometry x="370" y="220" width="40" height="40" as="geometry" />
        </mxCell>
        <mxCell id="L2mpfw4ouIo0iJSDVPGY-17" value="" style="shape=waypoint;sketch=0;fillStyle=solid;size=6;pointerEvents=1;points=[];fillColor=none;resizable=0;rotatable=0;perimeter=centerPerimeter;snapToPoint=1;" parent="1" vertex="1">
          <mxGeometry x="380" y="200" width="40" height="40" as="geometry" />
        </mxCell>
        <mxCell id="L2mpfw4ouIo0iJSDVPGY-18" value="" style="shape=waypoint;sketch=0;fillStyle=solid;size=6;pointerEvents=1;points=[];fillColor=none;resizable=0;rotatable=0;perimeter=centerPerimeter;snapToPoint=1;" parent="1" vertex="1">
          <mxGeometry x="380" y="220" width="40" height="40" as="geometry" />
        </mxCell>
        <mxCell id="L2mpfw4ouIo0iJSDVPGY-19" value="" style="shape=waypoint;sketch=0;fillStyle=solid;size=6;pointerEvents=1;points=[];fillColor=none;resizable=0;rotatable=0;perimeter=centerPerimeter;snapToPoint=1;" parent="1" vertex="1">
          <mxGeometry x="380" y="240" width="40" height="40" as="geometry" />
        </mxCell>
        <mxCell id="L2mpfw4ouIo0iJSDVPGY-20" value="" style="shape=waypoint;sketch=0;fillStyle=solid;size=6;pointerEvents=1;points=[];fillColor=none;resizable=0;rotatable=0;perimeter=centerPerimeter;snapToPoint=1;" parent="1" vertex="1">
          <mxGeometry x="380" y="260" width="40" height="40" as="geometry" />
        </mxCell>
        <mxCell id="L2mpfw4ouIo0iJSDVPGY-21" value="" style="shape=waypoint;sketch=0;fillStyle=solid;size=6;pointerEvents=1;points=[];fillColor=none;resizable=0;rotatable=0;perimeter=centerPerimeter;snapToPoint=1;" parent="1" vertex="1">
          <mxGeometry x="380" y="280" width="40" height="40" as="geometry" />
        </mxCell>
        <mxCell id="L2mpfw4ouIo0iJSDVPGY-22" value="" style="shape=waypoint;sketch=0;fillStyle=solid;size=6;pointerEvents=1;points=[];fillColor=none;resizable=0;rotatable=0;perimeter=centerPerimeter;snapToPoint=1;" parent="1" vertex="1">
          <mxGeometry x="380" y="300" width="40" height="40" as="geometry" />
        </mxCell>
        <mxCell id="L2mpfw4ouIo0iJSDVPGY-4" value="2" style="text;html=1;strokeColor=none;fillColor=none;align=center;verticalAlign=middle;whiteSpace=wrap;rounded=0;" parent="1" vertex="1">
          <mxGeometry x="420" y="360" width="40" height="30" as="geometry" />
        </mxCell>
        <mxCell id="L2mpfw4ouIo0iJSDVPGY-5" value="3" style="text;html=1;strokeColor=none;fillColor=none;align=center;verticalAlign=middle;whiteSpace=wrap;rounded=0;" parent="1" vertex="1">
          <mxGeometry x="440" y="360" width="40" height="30" as="geometry" />
        </mxCell>
        <mxCell id="L2mpfw4ouIo0iJSDVPGY-6" value="4" style="text;html=1;strokeColor=none;fillColor=none;align=center;verticalAlign=middle;whiteSpace=wrap;rounded=0;" parent="1" vertex="1">
          <mxGeometry x="460" y="360" width="40" height="30" as="geometry" />
        </mxCell>
        <mxCell id="L2mpfw4ouIo0iJSDVPGY-7" value="5" style="text;html=1;strokeColor=none;fillColor=none;align=center;verticalAlign=middle;whiteSpace=wrap;rounded=0;" parent="1" vertex="1">
          <mxGeometry x="480" y="360" width="40" height="30" as="geometry" />
        </mxCell>
        <mxCell id="L2mpfw4ouIo0iJSDVPGY-8" value="6" style="text;html=1;strokeColor=none;fillColor=none;align=center;verticalAlign=middle;whiteSpace=wrap;rounded=0;" parent="1" vertex="1">
          <mxGeometry x="500" y="360" width="40" height="30" as="geometry" />
        </mxCell>
        <mxCell id="L2mpfw4ouIo0iJSDVPGY-9" value="7" style="text;html=1;strokeColor=none;fillColor=none;align=center;verticalAlign=middle;whiteSpace=wrap;rounded=0;" parent="1" vertex="1">
          <mxGeometry x="520" y="360" width="40" height="30" as="geometry" />
        </mxCell>
        <mxCell id="L2mpfw4ouIo0iJSDVPGY-1" value="" style="endArrow=classic;html=1;rounded=0;endFill=1;startArrow=none;entryX=0;entryY=1;entryDx=0;entryDy=0;entryPerimeter=0;" parent="1" source="L2mpfw4ouIo0iJSDVPGY-65" target="L2mpfw4ouIo0iJSDVPGY-43" edge="1">
          <mxGeometry width="50" height="50" relative="1" as="geometry">
            <mxPoint x="40" y="360" as="sourcePoint" />
            <mxPoint x="880" y="360" as="targetPoint" />
          </mxGeometry>
        </mxCell>
        <mxCell id="L2mpfw4ouIo0iJSDVPGY-2" value="" style="endArrow=classic;html=1;rounded=0;endFill=1;entryX=0;entryY=1;entryDx=0;entryDy=0;entryPerimeter=0;startArrow=none;" parent="1" source="L2mpfw4ouIo0iJSDVPGY-73" target="L2mpfw4ouIo0iJSDVPGY-42" edge="1">
          <mxGeometry width="50" height="50" relative="1" as="geometry">
            <mxPoint x="400" y="520" as="sourcePoint" />
            <mxPoint x="400" y="40" as="targetPoint" />
          </mxGeometry>
        </mxCell>
        <mxCell id="L2mpfw4ouIo0iJSDVPGY-3" value="1" style="text;html=1;strokeColor=none;fillColor=none;align=center;verticalAlign=middle;whiteSpace=wrap;rounded=0;" parent="1" vertex="1">
          <mxGeometry x="400" y="360" width="40" height="30" as="geometry" />
        </mxCell>
        <mxCell id="L2mpfw4ouIo0iJSDVPGY-10" value="1" style="text;html=1;strokeColor=none;fillColor=none;align=center;verticalAlign=middle;whiteSpace=wrap;rounded=0;" parent="1" vertex="1">
          <mxGeometry x="370" y="320" width="40" height="40" as="geometry" />
        </mxCell>
        <mxCell id="L2mpfw4ouIo0iJSDVPGY-23" value="" style="shape=waypoint;sketch=0;fillStyle=solid;size=6;pointerEvents=1;points=[];fillColor=none;resizable=0;rotatable=0;perimeter=centerPerimeter;snapToPoint=1;" parent="1" vertex="1">
          <mxGeometry x="380" y="320" width="40" height="40" as="geometry" />
        </mxCell>
        <mxCell id="L2mpfw4ouIo0iJSDVPGY-25" value="-1" style="text;html=1;strokeColor=none;fillColor=none;align=center;verticalAlign=middle;whiteSpace=wrap;rounded=0;" parent="1" vertex="1">
          <mxGeometry x="360" y="355" width="40" height="40" as="geometry" />
        </mxCell>
        <mxCell id="L2mpfw4ouIo0iJSDVPGY-26" value="-4" style="text;html=1;strokeColor=none;fillColor=none;align=center;verticalAlign=middle;whiteSpace=wrap;rounded=0;" parent="1" vertex="1">
          <mxGeometry x="300" y="355" width="40" height="40" as="geometry" />
        </mxCell>
        <mxCell id="L2mpfw4ouIo0iJSDVPGY-27" value="-2" style="text;html=1;strokeColor=none;fillColor=none;align=center;verticalAlign=middle;whiteSpace=wrap;rounded=0;" parent="1" vertex="1">
          <mxGeometry x="340" y="355" width="40" height="40" as="geometry" />
        </mxCell>
        <mxCell id="L2mpfw4ouIo0iJSDVPGY-28" value="-6" style="text;html=1;strokeColor=none;fillColor=none;align=center;verticalAlign=middle;whiteSpace=wrap;rounded=0;" parent="1" vertex="1">
          <mxGeometry x="260" y="355" width="40" height="40" as="geometry" />
        </mxCell>
        <mxCell id="L2mpfw4ouIo0iJSDVPGY-29" value="-8" style="text;html=1;strokeColor=none;fillColor=none;align=center;verticalAlign=middle;whiteSpace=wrap;rounded=0;" parent="1" vertex="1">
          <mxGeometry x="220" y="355" width="40" height="40" as="geometry" />
        </mxCell>
        <mxCell id="L2mpfw4ouIo0iJSDVPGY-30" value="-10" style="text;html=1;strokeColor=none;fillColor=none;align=center;verticalAlign=middle;whiteSpace=wrap;rounded=0;" parent="1" vertex="1">
          <mxGeometry x="180" y="355" width="40" height="40" as="geometry" />
        </mxCell>
        <mxCell id="L2mpfw4ouIo0iJSDVPGY-31" value="-12" style="text;html=1;strokeColor=none;fillColor=none;align=center;verticalAlign=middle;whiteSpace=wrap;rounded=0;" parent="1" vertex="1">
          <mxGeometry x="140" y="355" width="40" height="40" as="geometry" />
        </mxCell>
        <mxCell id="L2mpfw4ouIo0iJSDVPGY-32" value="-14" style="text;html=1;strokeColor=none;fillColor=none;align=center;verticalAlign=middle;whiteSpace=wrap;rounded=0;" parent="1" vertex="1">
          <mxGeometry x="100" y="355" width="40" height="40" as="geometry" />
        </mxCell>
        <mxCell id="L2mpfw4ouIo0iJSDVPGY-33" value="-16" style="text;html=1;strokeColor=none;fillColor=none;align=center;verticalAlign=middle;whiteSpace=wrap;rounded=0;" parent="1" vertex="1">
          <mxGeometry x="60" y="355" width="40" height="40" as="geometry" />
        </mxCell>
        <mxCell id="L2mpfw4ouIo0iJSDVPGY-34" value="" style="shape=waypoint;sketch=0;fillStyle=solid;size=6;pointerEvents=1;points=[];fillColor=none;resizable=0;rotatable=0;perimeter=centerPerimeter;snapToPoint=1;" parent="1" vertex="1">
          <mxGeometry x="100" y="340" width="40" height="40" as="geometry" />
        </mxCell>
        <mxCell id="L2mpfw4ouIo0iJSDVPGY-36" value="" style="endArrow=classic;html=1;rounded=0;endFill=1;fillColor=#f8cecc;strokeColor=#b85450;entryX=0;entryY=0;entryDx=0;entryDy=0;entryPerimeter=0;" parent="1" target="L2mpfw4ouIo0iJSDVPGY-42" edge="1">
          <mxGeometry width="50" height="50" relative="1" as="geometry">
            <mxPoint x="40" y="400" as="sourcePoint" />
            <mxPoint x="1000" y="-80" as="targetPoint" />
          </mxGeometry>
        </mxCell>
        <mxCell id="L2mpfw4ouIo0iJSDVPGY-37" value="" style="endArrow=classic;html=1;rounded=0;endFill=1;fillColor=#dae8fc;strokeColor=#6c8ebf;entryX=1;entryY=1;entryDx=0;entryDy=0;entryPerimeter=0;" parent="1" target="L2mpfw4ouIo0iJSDVPGY-43" edge="1">
          <mxGeometry width="50" height="50" relative="1" as="geometry">
            <mxPoint x="320" y="440" as="sourcePoint" />
            <mxPoint x="880" y="-120" as="targetPoint" />
          </mxGeometry>
        </mxCell>
        <mxCell id="L2mpfw4ouIo0iJSDVPGY-46" style="edgeStyle=none;rounded=0;orthogonalLoop=1;jettySize=auto;html=1;exitX=0.5;exitY=0;exitDx=0;exitDy=0;entryX=0.541;entryY=0.539;entryDx=0;entryDy=0;entryPerimeter=0;endArrow=none;endFill=0;dashed=1;" parent="1" source="L2mpfw4ouIo0iJSDVPGY-38" target="L2mpfw4ouIo0iJSDVPGY-43" edge="1">
          <mxGeometry relative="1" as="geometry" />
        </mxCell>
        <mxCell id="L2mpfw4ouIo0iJSDVPGY-38" value="14" style="text;html=1;strokeColor=none;fillColor=none;align=center;verticalAlign=middle;whiteSpace=wrap;rounded=0;" parent="1" vertex="1">
          <mxGeometry x="660" y="360" width="40" height="30" as="geometry" />
        </mxCell>
        <mxCell id="L2mpfw4ouIo0iJSDVPGY-39" value="14" style="text;html=1;strokeColor=none;fillColor=none;align=center;verticalAlign=middle;whiteSpace=wrap;rounded=0;" parent="1" vertex="1">
          <mxGeometry x="370" y="60" width="40" height="40" as="geometry" />
        </mxCell>
        <mxCell id="L2mpfw4ouIo0iJSDVPGY-42" value="" style="verticalLabelPosition=bottom;verticalAlign=top;html=1;shape=mxgraph.basic.orthogonal_triangle;rotation=0;direction=south;strokeColor=#b85450;opacity=20;fillColor=#f8cecc;" parent="1" vertex="1">
          <mxGeometry x="400" y="-60" width="560" height="280" as="geometry" />
        </mxCell>
        <mxCell id="L2mpfw4ouIo0iJSDVPGY-47" style="edgeStyle=none;rounded=0;orthogonalLoop=1;jettySize=auto;html=1;exitDx=0;exitDy=0;exitPerimeter=0;entryX=0.496;entryY=1.002;entryDx=0;entryDy=0;entryPerimeter=0;dashed=1;endArrow=none;endFill=0;startArrow=none;" parent="1" source="L2mpfw4ouIo0iJSDVPGY-60" target="L2mpfw4ouIo0iJSDVPGY-42" edge="1">
          <mxGeometry relative="1" as="geometry" />
        </mxCell>
        <mxCell id="L2mpfw4ouIo0iJSDVPGY-48" value="18" style="text;html=1;strokeColor=none;fillColor=none;align=center;verticalAlign=middle;whiteSpace=wrap;rounded=0;" parent="1" vertex="1">
          <mxGeometry x="740" y="360" width="40" height="30" as="geometry" />
        </mxCell>
        <mxCell id="L2mpfw4ouIo0iJSDVPGY-49" value="18" style="text;html=1;strokeColor=none;fillColor=none;align=center;verticalAlign=middle;whiteSpace=wrap;rounded=0;" parent="1" vertex="1">
          <mxGeometry x="370" y="-20" width="40" height="40" as="geometry" />
        </mxCell>
        <mxCell id="L2mpfw4ouIo0iJSDVPGY-50" value="20" style="text;html=1;strokeColor=none;fillColor=none;align=center;verticalAlign=middle;whiteSpace=wrap;rounded=0;" parent="1" vertex="1">
          <mxGeometry x="780" y="360" width="40" height="30" as="geometry" />
        </mxCell>
        <mxCell id="L2mpfw4ouIo0iJSDVPGY-51" style="edgeStyle=none;rounded=0;orthogonalLoop=1;jettySize=auto;html=1;exitDx=0;exitDy=0;endArrow=none;endFill=0;dashed=1;entryX=0.501;entryY=1.016;entryDx=0;entryDy=0;entryPerimeter=0;startArrow=none;" parent="1" source="L2mpfw4ouIo0iJSDVPGY-79" target="L2mpfw4ouIo0iJSDVPGY-52" edge="1">
          <mxGeometry relative="1" as="geometry">
            <mxPoint x="690" y="370" as="sourcePoint" />
            <mxPoint x="1000" y="320" as="targetPoint" />
          </mxGeometry>
        </mxCell>
        <mxCell id="L2mpfw4ouIo0iJSDVPGY-52" value="" style="shape=waypoint;sketch=0;fillStyle=solid;size=6;pointerEvents=1;points=[];fillColor=none;resizable=0;rotatable=0;perimeter=centerPerimeter;snapToPoint=1;" parent="1" vertex="1">
          <mxGeometry x="780" y="-20" width="40" height="40" as="geometry" />
        </mxCell>
        <mxCell id="L2mpfw4ouIo0iJSDVPGY-53" style="edgeStyle=none;rounded=0;orthogonalLoop=1;jettySize=auto;html=1;exitX=0.75;exitY=0.5;exitDx=0;exitDy=0;endArrow=none;endFill=0;dashed=1;exitPerimeter=0;" parent="1" source="L2mpfw4ouIo0iJSDVPGY-49" target="L2mpfw4ouIo0iJSDVPGY-52" edge="1">
          <mxGeometry relative="1" as="geometry">
            <mxPoint x="810" y="370" as="sourcePoint" />
            <mxPoint x="810" y="10" as="targetPoint" />
          </mxGeometry>
        </mxCell>
        <mxCell id="L2mpfw4ouIo0iJSDVPGY-54" value="17" style="text;html=1;strokeColor=none;fillColor=none;align=center;verticalAlign=middle;whiteSpace=wrap;rounded=0;" parent="1" vertex="1">
          <mxGeometry x="370" width="40" height="40" as="geometry" />
        </mxCell>
        <mxCell id="L2mpfw4ouIo0iJSDVPGY-55" style="edgeStyle=none;rounded=0;orthogonalLoop=1;jettySize=auto;html=1;exitX=0.75;exitY=0.5;exitDx=0;exitDy=0;endArrow=none;endFill=0;dashed=1;exitPerimeter=0;" parent="1" edge="1">
          <mxGeometry relative="1" as="geometry">
            <mxPoint x="400" y="19.999999999999996" as="sourcePoint" />
            <mxPoint x="800" y="19.999999999999996" as="targetPoint" />
          </mxGeometry>
        </mxCell>
        <mxCell id="L2mpfw4ouIo0iJSDVPGY-57" style="edgeStyle=none;rounded=0;orthogonalLoop=1;jettySize=auto;html=1;exitDx=0;exitDy=0;endArrow=none;endFill=0;dashed=1;exitPerimeter=0;startArrow=none;" parent="1" source="L2mpfw4ouIo0iJSDVPGY-77" edge="1">
          <mxGeometry relative="1" as="geometry">
            <mxPoint x="400" y="-40.00000000000014" as="sourcePoint" />
            <mxPoint x="800" y="-40.00000000000014" as="targetPoint" />
          </mxGeometry>
        </mxCell>
        <mxCell id="L2mpfw4ouIo0iJSDVPGY-58" value="" style="shape=waypoint;sketch=0;fillStyle=solid;size=6;pointerEvents=1;points=[];fillColor=none;resizable=0;rotatable=0;perimeter=centerPerimeter;snapToPoint=1;" parent="1" vertex="1">
          <mxGeometry x="380" y="-20" width="40" height="40" as="geometry" />
        </mxCell>
        <mxCell id="L2mpfw4ouIo0iJSDVPGY-60" value="" style="shape=waypoint;sketch=0;fillStyle=solid;size=6;pointerEvents=1;points=[];fillColor=none;resizable=0;rotatable=0;perimeter=centerPerimeter;snapToPoint=1;" parent="1" vertex="1">
          <mxGeometry x="380" y="60" width="40" height="40" as="geometry" />
        </mxCell>
        <mxCell id="L2mpfw4ouIo0iJSDVPGY-61" value="" style="edgeStyle=none;rounded=0;orthogonalLoop=1;jettySize=auto;html=1;exitX=0.5;exitY=0.5;exitDx=0;exitDy=0;exitPerimeter=0;entryDx=0;entryDy=0;entryPerimeter=0;dashed=1;endArrow=none;endFill=0;" parent="1" source="L2mpfw4ouIo0iJSDVPGY-42" target="L2mpfw4ouIo0iJSDVPGY-60" edge="1">
          <mxGeometry relative="1" as="geometry">
            <mxPoint x="680" y="80" as="sourcePoint" />
            <mxPoint x="398.88000000000056" y="78.88000000000056" as="targetPoint" />
          </mxGeometry>
        </mxCell>
        <mxCell id="L2mpfw4ouIo0iJSDVPGY-62" value="" style="shape=waypoint;sketch=0;fillStyle=solid;size=6;pointerEvents=1;points=[];fillColor=none;resizable=0;rotatable=0;perimeter=centerPerimeter;snapToPoint=1;" parent="1" vertex="1">
          <mxGeometry x="660" y="340" width="40" height="40" as="geometry" />
        </mxCell>
        <mxCell id="L2mpfw4ouIo0iJSDVPGY-63" value="" style="shape=waypoint;sketch=0;fillStyle=solid;size=6;pointerEvents=1;points=[];fillColor=none;resizable=0;rotatable=0;perimeter=centerPerimeter;snapToPoint=1;" parent="1" vertex="1">
          <mxGeometry x="780" y="340" width="40" height="40" as="geometry" />
        </mxCell>
        <mxCell id="L2mpfw4ouIo0iJSDVPGY-64" value="" style="shape=waypoint;sketch=0;fillStyle=solid;size=6;pointerEvents=1;points=[];fillColor=none;resizable=0;rotatable=0;perimeter=centerPerimeter;snapToPoint=1;" parent="1" vertex="1">
          <mxGeometry x="740" y="340" width="40" height="40" as="geometry" />
        </mxCell>
        <mxCell id="L2mpfw4ouIo0iJSDVPGY-65" value="" style="shape=waypoint;sketch=0;fillStyle=solid;size=6;pointerEvents=1;points=[];fillColor=none;resizable=0;rotatable=0;perimeter=centerPerimeter;snapToPoint=1;" parent="1" vertex="1">
          <mxGeometry x="520" y="340" width="40" height="40" as="geometry" />
        </mxCell>
        <mxCell id="L2mpfw4ouIo0iJSDVPGY-66" value="" style="endArrow=none;html=1;rounded=0;endFill=1;startArrow=none;" parent="1" source="L2mpfw4ouIo0iJSDVPGY-67" target="L2mpfw4ouIo0iJSDVPGY-65" edge="1">
          <mxGeometry width="50" height="50" relative="1" as="geometry">
            <mxPoint x="40" y="360" as="sourcePoint" />
            <mxPoint x="880" y="360" as="targetPoint" />
          </mxGeometry>
        </mxCell>
        <mxCell id="L2mpfw4ouIo0iJSDVPGY-67" value="" style="shape=waypoint;sketch=0;fillStyle=solid;size=6;pointerEvents=1;points=[];fillColor=none;resizable=0;rotatable=0;perimeter=centerPerimeter;snapToPoint=1;" parent="1" vertex="1">
          <mxGeometry x="500" y="340" width="40" height="40" as="geometry" />
        </mxCell>
        <mxCell id="L2mpfw4ouIo0iJSDVPGY-68" value="" style="endArrow=none;html=1;rounded=0;endFill=1;startArrow=none;" parent="1" source="L2mpfw4ouIo0iJSDVPGY-71" target="L2mpfw4ouIo0iJSDVPGY-67" edge="1">
          <mxGeometry width="50" height="50" relative="1" as="geometry">
            <mxPoint x="40" y="360" as="sourcePoint" />
            <mxPoint x="540" y="360" as="targetPoint" />
          </mxGeometry>
        </mxCell>
        <mxCell id="L2mpfw4ouIo0iJSDVPGY-70" value="" style="shape=waypoint;sketch=0;fillStyle=solid;size=6;pointerEvents=1;points=[];fillColor=none;resizable=0;rotatable=0;perimeter=centerPerimeter;snapToPoint=1;" parent="1" vertex="1">
          <mxGeometry x="460" y="340" width="40" height="40" as="geometry" />
        </mxCell>
        <mxCell id="L2mpfw4ouIo0iJSDVPGY-71" value="" style="shape=waypoint;sketch=0;fillStyle=solid;size=6;pointerEvents=1;points=[];fillColor=none;resizable=0;rotatable=0;perimeter=centerPerimeter;snapToPoint=1;" parent="1" vertex="1">
          <mxGeometry x="420" y="340" width="40" height="40" as="geometry" />
        </mxCell>
        <mxCell id="L2mpfw4ouIo0iJSDVPGY-72" value="" style="endArrow=none;html=1;rounded=0;endFill=1;" parent="1" target="L2mpfw4ouIo0iJSDVPGY-71" edge="1">
          <mxGeometry width="50" height="50" relative="1" as="geometry">
            <mxPoint x="40" y="360" as="sourcePoint" />
            <mxPoint x="520" y="360" as="targetPoint" />
          </mxGeometry>
        </mxCell>
        <mxCell id="L2mpfw4ouIo0iJSDVPGY-73" value="" style="shape=waypoint;sketch=0;fillStyle=solid;size=6;pointerEvents=1;points=[];fillColor=none;resizable=0;rotatable=0;perimeter=centerPerimeter;snapToPoint=1;" parent="1" vertex="1">
          <mxGeometry x="380" y="-60" width="40" height="40" as="geometry" />
        </mxCell>
        <mxCell id="L2mpfw4ouIo0iJSDVPGY-75" value="20" style="text;html=1;strokeColor=none;fillColor=none;align=center;verticalAlign=middle;whiteSpace=wrap;rounded=0;" parent="1" vertex="1">
          <mxGeometry x="370" y="-60" width="40" height="40" as="geometry" />
        </mxCell>
        <mxCell id="L2mpfw4ouIo0iJSDVPGY-77" value="" style="shape=waypoint;sketch=0;fillStyle=solid;size=6;pointerEvents=1;points=[];fillColor=none;resizable=0;rotatable=0;perimeter=centerPerimeter;snapToPoint=1;" parent="1" vertex="1">
          <mxGeometry x="780" y="-60" width="40" height="40" as="geometry" />
        </mxCell>
        <mxCell id="L2mpfw4ouIo0iJSDVPGY-78" value="" style="edgeStyle=none;rounded=0;orthogonalLoop=1;jettySize=auto;html=1;exitX=0.75;exitY=0.5;exitDx=0;exitDy=0;endArrow=none;endFill=0;dashed=1;exitPerimeter=0;" parent="1" target="L2mpfw4ouIo0iJSDVPGY-77" edge="1">
          <mxGeometry relative="1" as="geometry">
            <mxPoint x="400" y="-40" as="sourcePoint" />
            <mxPoint x="800" y="-40" as="targetPoint" />
          </mxGeometry>
        </mxCell>
        <mxCell id="L2mpfw4ouIo0iJSDVPGY-79" value="" style="shape=waypoint;sketch=0;fillStyle=solid;size=6;pointerEvents=1;points=[];fillColor=none;resizable=0;rotatable=0;perimeter=centerPerimeter;snapToPoint=1;" parent="1" vertex="1">
          <mxGeometry x="780" width="40" height="40" as="geometry" />
        </mxCell>
        <mxCell id="L2mpfw4ouIo0iJSDVPGY-80" value="" style="edgeStyle=none;rounded=0;orthogonalLoop=1;jettySize=auto;html=1;exitX=0.5;exitY=0;exitDx=0;exitDy=0;endArrow=none;endFill=0;dashed=1;" parent="1" source="L2mpfw4ouIo0iJSDVPGY-50" target="L2mpfw4ouIo0iJSDVPGY-77" edge="1">
          <mxGeometry relative="1" as="geometry">
            <mxPoint x="800" y="360" as="sourcePoint" />
            <mxPoint x="800" as="targetPoint" />
          </mxGeometry>
        </mxCell>
        <mxCell id="L2mpfw4ouIo0iJSDVPGY-81" value="22" style="text;html=1;strokeColor=none;fillColor=none;align=center;verticalAlign=middle;whiteSpace=wrap;rounded=0;" parent="1" vertex="1">
          <mxGeometry x="820" y="355" width="40" height="40" as="geometry" />
        </mxCell>
        <mxCell id="L2mpfw4ouIo0iJSDVPGY-82" value="24" style="text;html=1;strokeColor=none;fillColor=none;align=center;verticalAlign=middle;whiteSpace=wrap;rounded=0;" parent="1" vertex="1">
          <mxGeometry x="860" y="355" width="40" height="40" as="geometry" />
        </mxCell>
        <mxCell id="L2mpfw4ouIo0iJSDVPGY-83" value="" style="shape=waypoint;sketch=0;fillStyle=solid;size=6;pointerEvents=1;points=[];fillColor=none;resizable=0;rotatable=0;perimeter=centerPerimeter;snapToPoint=1;" parent="1" vertex="1">
          <mxGeometry x="820" y="340" width="40" height="40" as="geometry" />
        </mxCell>
        <mxCell id="L2mpfw4ouIo0iJSDVPGY-84" value="" style="shape=waypoint;sketch=0;fillStyle=solid;size=6;pointerEvents=1;points=[];fillColor=none;resizable=0;rotatable=0;perimeter=centerPerimeter;snapToPoint=1;" parent="1" vertex="1">
          <mxGeometry x="860" y="340" width="40" height="40" as="geometry" />
        </mxCell>
        <mxCell id="L2mpfw4ouIo0iJSDVPGY-85" value="&lt;font face=&quot;Comic Sans MS&quot; style=&quot;font-size: 20px&quot;&gt;x轴&lt;/font&gt;" style="text;html=1;align=center;verticalAlign=middle;whiteSpace=wrap;rounded=0;" parent="1" vertex="1">
          <mxGeometry x="920" y="345" width="60" height="30" as="geometry" />
        </mxCell>
        <mxCell id="L2mpfw4ouIo0iJSDVPGY-87" value="&lt;font face=&quot;Comic Sans MS&quot; style=&quot;font-size: 20px&quot;&gt;y轴&lt;/font&gt;" style="text;html=1;strokeColor=none;fillColor=none;align=center;verticalAlign=middle;whiteSpace=wrap;rounded=0;" parent="1" vertex="1">
          <mxGeometry x="370" y="-120" width="60" height="30" as="geometry" />
        </mxCell>
        <mxCell id="L2mpfw4ouIo0iJSDVPGY-88" value="" style="shape=curlyBracket;whiteSpace=wrap;html=1;rounded=1;flipH=1;fontFamily=Comic Sans MS;fontSize=20;fontColor=#000000;" parent="1" vertex="1">
          <mxGeometry x="807" y="-40" width="20" height="60" as="geometry" />
        </mxCell>
        <mxCell id="L2mpfw4ouIo0iJSDVPGY-89" value="" style="shape=curlyBracket;whiteSpace=wrap;html=1;rounded=1;flipH=1;fontFamily=Comic Sans MS;fontSize=20;fontColor=#000000;" parent="1" vertex="1">
          <mxGeometry x="807" y="20" width="20" height="340" as="geometry" />
        </mxCell>
        <mxCell id="L2mpfw4ouIo0iJSDVPGY-90" value="&lt;font style=&quot;font-size: 12px&quot; color=&quot;#7ea6e0&quot;&gt;范围A&lt;/font&gt;" style="text;html=1;strokeColor=none;fillColor=none;align=center;verticalAlign=middle;whiteSpace=wrap;rounded=0;fontFamily=Comic Sans MS;fontSize=20;fontColor=#000000;" parent="1" vertex="1">
          <mxGeometry x="820" y="-40" width="60" height="30" as="geometry" />
        </mxCell>
        <mxCell id="L2mpfw4ouIo0iJSDVPGY-91" value="&lt;font style=&quot;font-size: 12px&quot; color=&quot;#f19c99&quot;&gt;范围B&lt;/font&gt;" style="text;html=1;strokeColor=none;fillColor=none;align=center;verticalAlign=middle;whiteSpace=wrap;rounded=0;fontFamily=Comic Sans MS;fontSize=20;fontColor=#000000;" parent="1" vertex="1">
          <mxGeometry x="820" y="160" width="60" height="30" as="geometry" />
        </mxCell>
        <mxCell id="L2mpfw4ouIo0iJSDVPGY-92" value="" style="shape=curlyBracket;whiteSpace=wrap;html=1;rounded=1;flipH=1;fontFamily=Comic Sans MS;fontSize=20;fontColor=#000000;rotation=-180;" parent="1" vertex="1">
          <mxGeometry x="760" y="-40" width="20" height="400" as="geometry" />
        </mxCell>
        <mxCell id="L2mpfw4ouIo0iJSDVPGY-93" value="&lt;font style=&quot;font-size: 12px&quot;&gt;范围C&lt;/font&gt;" style="text;html=1;strokeColor=none;fillColor=none;align=center;verticalAlign=middle;whiteSpace=wrap;rounded=0;fontFamily=Comic Sans MS;fontSize=20;fontColor=#000000;" parent="1" vertex="1">
          <mxGeometry x="700" y="145" width="60" height="30" as="geometry" />
        </mxCell>
      </root>
    </mxGraphModel>
  </diagram>
</mxfile>
